# xmcd
#
# Track frame offsets: 
#        182
#        19017
#        35317
#        52367
#        67980
#        85017
#        100877
#        114722
#        131332
#        146115
#        164215
#        180600
#
# Disc length: 2566 seconds
#
# Revision: 3
# Processed by: cddbd v1.4PL0 Copyright (c) Steve Scherf et al.
# Submitted via: ExactAudioCopy v0.95a4
#
DISCID=a90a040c
DTITLE=Erasure - Cowboy
DYEAR=1997
DGENRE=Pop
TTITLE0=Rain
TTITLE1=Worlds On Fire
TTITLE2=Reach Out
TTITLE3=In My Arms
TTITLE4=Don't Say Your Love Is Killing Me
TTITLE5=Precious
TTITLE6=Treasure
TTITLE7=Boy
TTITLE8=How Can I Say
TTITLE9=Save Me Darling
TTITLE10=Love Affair
TTITLE11=Magic Moments
EXTD=DISC: 1\nUPC: 093624667728\nLABEL: Warner Bros.\nENSORECORD: 1384
EXTD=99\n
EXTT0=PERFORMER: Erasure\n
EXTT1=PERFORMER: Erasure\n
EXTT2=PERFORMER: Erasure\n
EXTT3=PERFORMER: Erasure\n
EXTT4=PERFORMER: Erasure\n
EXTT5=PERFORMER: Erasure\n
EXTT6=PERFORMER: Erasure\n
EXTT7=PERFORMER: Erasure\n
EXTT8=PERFORMER: Erasure\n
EXTT9=PERFORMER: Erasure\n
EXTT10=PERFORMER: Erasure\n
EXTT11=PERFORMER: Erasure\n
PLAYORDER=
